<?xml version="1.0" encoding="UTF-8"?>
<svg version="1.1" xmlns="http://www.w3.org/2000/svg" width="200" height="70">
<path d="M0,0 L15,0 L15,1 L18,1 L18,2 L20,2 L20,3 L22,3 L22,4 L23,4 L23,5 L24,5 L24,6 L26,6 L26,7 L27,7 L27,8 L28,8 L28,9 L29,9 L29,11 L30,11 L30,12 L31,12 L31,14 L32,14 L32,16 L33,16 L33,18 L34,18 L34,19 L35,19 L35,21 L34,21 L34,23 L35,23 L35,32 L34,32 L34,36 L33,36 L33,38 L32,38 L32,40 L31,40 L31,42 L30,42 L30,43 L29,43 L29,45 L28,45 L28,46 L27,46 L27,47 L26,47 L26,48 L24,48 L24,49 L23,49 L23,50 L22,50 L22,51 L20,51 L20,52 L18,52 L18,53 L15,53 L15,54 L0,54 L0,53 L-3,53 L-3,52 L-5,52 L-5,51 L-7,51 L-7,50 L-8,50 L-8,49 L-10,49 L-10,48 L-11,48 L-11,47 L-12,47 L-12,46 L-13,46 L-13,45 L-14,45 L-14,44 L-15,44 L-15,42 L-16,42 L-16,41 L-17,41 L-17,39 L-18,39 L-18,36 L-19,36 L-19,33 L-20,33 L-20,21 L-19,21 L-19,18 L-18,18 L-18,15 L-17,15 L-17,14 L-16,14 L-16,12 L-15,12 L-15,11 L-14,11 L-14,9 L-13,9 L-13,8 L-12,8 L-12,7 L-11,7 L-11,6 L-10,6 L-10,5 L-8,5 L-8,4 L-7,4 L-7,3 L-5,3 L-5,2 L-3,2 L-3,1 L0,1 Z " fill="#ECCE07" transform="translate(165,8)"/>
<path d="M0,0 L15,0 L15,1 L18,1 L18,2 L20,2 L20,3 L22,3 L22,4 L23,4 L23,5 L24,5 L24,6 L26,6 L26,7 L27,7 L27,8 L28,8 L28,9 L29,9 L29,11 L30,11 L30,12 L31,12 L31,14 L32,14 L32,16 L33,16 L33,18 L34,18 L34,19 L35,19 L35,21 L34,21 L34,23 L35,23 L35,32 L34,32 L34,36 L33,36 L33,38 L32,38 L32,40 L31,40 L31,42 L30,42 L30,43 L29,43 L29,45 L28,45 L28,46 L27,46 L27,47 L26,47 L26,48 L24,48 L24,49 L23,49 L23,50 L22,50 L22,51 L20,51 L20,52 L18,52 L18,53 L15,53 L15,54 L0,54 L0,53 L-3,53 L-3,52 L-5,52 L-5,51 L-7,51 L-7,50 L-8,50 L-8,49 L-10,49 L-10,48 L-11,48 L-11,47 L-12,47 L-12,46 L-13,46 L-13,45 L-14,45 L-14,44 L-15,44 L-15,42 L-16,42 L-16,41 L-17,41 L-17,39 L-18,39 L-18,36 L-19,36 L-19,33 L-20,33 L-20,21 L-19,21 L-19,18 L-18,18 L-18,15 L-17,15 L-17,14 L-16,14 L-16,12 L-15,12 L-15,11 L-14,11 L-14,9 L-13,9 L-13,8 L-12,8 L-12,7 L-11,7 L-11,6 L-10,6 L-10,5 L-8,5 L-8,4 L-7,4 L-7,3 L-5,3 L-5,2 L-3,2 L-3,1 L0,1 Z M-2,7 L-2,9 L-3,9 L-3,10 L-5,10 L-5,11 L-6,11 L-6,12 L-7,12 L-7,13 L-8,13 L-8,14 L-9,14 L-9,15 L-10,15 L-10,17 L-11,17 L-11,18 L-12,18 L-12,22 L-13,22 L-13,32 L-12,32 L-12,35 L-11,35 L-11,37 L-10,37 L-10,39 L-9,39 L-9,40 L-8,40 L-8,41 L-7,41 L-7,42 L-6,42 L-6,43 L-5,43 L-5,44 L-3,44 L-3,45 L-1,45 L-1,46 L0,46 L0,47 L14,47 L14,46 L16,46 L16,45 L18,45 L18,44 L20,44 L20,43 L21,43 L21,42 L22,42 L22,41 L23,41 L23,40 L24,40 L24,38 L25,38 L25,37 L26,37 L26,35 L27,35 L27,32 L28,32 L28,21 L27,21 L27,20 L26,20 L26,17 L25,17 L25,16 L24,16 L24,14 L23,14 L23,13 L22,13 L22,12 L21,12 L21,11 L20,11 L20,10 L18,10 L18,9 L16,9 L16,8 L15,8 L15,7 Z " fill="#D6D5A3" transform="translate(165,8)"/>
<path d="M0,0 L9,0 L9,1 L10,1 L10,3 L11,3 L11,4 L12,4 L12,5 L13,5 L13,7 L14,7 L14,8 L15,8 L15,10 L16,10 L16,8 L17,8 L17,7 L18,7 L18,6 L19,6 L19,4 L20,4 L20,3 L21,3 L21,2 L22,2 L22,1 L23,1 L23,0 L32,0 L32,1 L31,1 L31,2 L30,2 L30,26 L31,26 L31,27 L20,27 L20,26 L21,26 L21,14 L20,14 L20,16 L19,16 L19,17 L18,17 L18,18 L17,18 L17,20 L15,20 L15,19 L14,19 L14,18 L13,18 L13,16 L12,16 L12,15 L11,15 L11,14 L10,14 L10,25 L11,25 L11,27 L0,27 L0,26 L1,26 L1,25 L2,25 L2,3 L1,3 L1,2 L0,2 Z " fill="#FBFBFB" transform="translate(79,5)"/>
<path d="M0,0 L22,0 L22,1 L28,1 L28,2 L27,2 L27,3 L26,3 L26,4 L25,4 L25,5 L23,5 L23,6 L22,6 L22,7 L20,7 L20,8 L18,8 L18,12 L19,12 L19,14 L16,14 L16,15 L7,15 L7,16 L3,16 L3,17 L0,17 L0,18 L-2,18 L-2,19 L0,19 L0,22 L-1,22 L-1,21 L-2,21 L-2,24 L0,24 L0,25 L1,25 L1,27 L0,27 L0,28 L-2,28 L-2,26 L-3,26 L-3,25 L-4,25 L-4,20 L-5,20 L-5,17 L-6,17 L-6,16 L-8,16 L-8,17 L-16,17 L-16,29 L-15,29 L-15,36 L-18,36 L-18,35 L-19,35 L-19,32 L-18,32 L-18,17 L-19,17 L-19,15 L-18,15 L-18,14 L-17,14 L-17,13 L-15,13 L-15,12 L-14,12 L-14,11 L-13,11 L-13,10 L-11,10 L-11,9 L-10,9 L-10,8 L-9,8 L-9,7 L-8,7 L-8,6 L-6,6 L-6,5 L-5,5 L-5,4 L-4,4 L-4,3 L-3,3 L-3,2 L-1,2 L-1,1 L0,1 Z M16,7 L16,8 L17,8 L17,7 Z M-4,19 L-4,20 L-3,20 L-3,19 Z " fill="#FFFFFF" transform="translate(19,3)"/>
<path d="M0,0 L14,0 L14,1 L15,1 L15,2 L17,2 L17,3 L19,3 L19,4 L20,4 L20,5 L21,5 L21,6 L22,6 L22,7 L23,7 L23,9 L24,9 L24,10 L25,10 L25,13 L26,13 L26,14 L27,14 L27,25 L26,25 L26,28 L25,28 L25,30 L24,30 L24,31 L23,31 L23,33 L22,33 L22,34 L21,34 L21,35 L20,35 L20,36 L19,36 L19,37 L17,37 L17,38 L15,38 L15,39 L13,39 L13,40 L-1,40 L-1,39 L-2,39 L-2,38 L-4,38 L-4,37 L-6,37 L-6,36 L-7,36 L-7,35 L-8,35 L-8,34 L-9,34 L-9,33 L-10,33 L-10,32 L-11,32 L-11,30 L-12,30 L-12,28 L-13,28 L-13,25 L-14,25 L-14,15 L-13,15 L-13,11 L-12,11 L-12,10 L-11,10 L-11,8 L-10,8 L-10,7 L-9,7 L-9,6 L-8,6 L-8,5 L-7,5 L-7,4 L-6,4 L-6,3 L-4,3 L-4,2 L-3,2 L-3,1 L-1,1 L-1,2 L-2,2 L-2,3 L-3,3 L-3,4 L-4,4 L-4,5 L-5,5 L-5,7 L-6,7 L-6,11 L-7,11 L-7,12 L-8,12 L-8,14 L-9,14 L-9,16 L-10,16 L-10,23 L-9,23 L-9,26 L-8,26 L-8,27 L-9,27 L-9,29 L-8,29 L-8,30 L-6,30 L-6,31 L-5,31 L-5,32 L-4,32 L-4,33 L-3,33 L-3,34 L-1,34 L-1,35 L1,35 L1,36 L11,36 L11,35 L14,35 L14,34 L16,34 L16,33 L17,33 L17,32 L18,32 L18,31 L20,31 L20,30 L21,30 L21,26 L22,26 L22,25 L23,25 L23,16 L22,16 L22,13 L21,13 L21,12 L20,12 L20,10 L19,10 L19,9 L18,9 L18,8 L17,8 L17,7 L15,7 L15,6 L14,6 L14,5 L12,5 L12,4 L5,4 L5,3 L3,3 L3,2 L1,2 L1,1 L0,1 Z " fill="#1F1358" transform="translate(166,15)"/>
<path d="M0,0 L15,0 L15,1 L18,1 L18,2 L20,2 L20,3 L22,3 L22,4 L23,4 L23,5 L24,5 L24,6 L26,6 L26,7 L27,7 L27,8 L28,8 L28,9 L29,9 L29,11 L30,11 L30,12 L31,12 L31,14 L32,14 L32,16 L33,16 L33,18 L34,18 L34,19 L35,19 L35,21 L34,21 L34,23 L35,23 L35,32 L34,32 L34,36 L33,36 L33,38 L32,38 L32,40 L31,40 L31,42 L30,42 L30,43 L29,43 L29,45 L28,45 L28,46 L27,46 L27,47 L26,47 L26,48 L24,48 L24,49 L23,49 L23,50 L22,50 L22,51 L20,51 L20,52 L18,52 L18,53 L15,53 L15,54 L0,54 L0,53 L-3,53 L-3,52 L-5,52 L-5,51 L-7,51 L-7,50 L-8,50 L-8,49 L-10,49 L-10,48 L-11,48 L-11,47 L-12,47 L-12,46 L-13,46 L-13,45 L-14,45 L-14,44 L-15,44 L-15,42 L-16,42 L-16,41 L-17,41 L-17,39 L-18,39 L-18,36 L-19,36 L-19,33 L-20,33 L-20,21 L-19,21 L-19,18 L-18,18 L-18,15 L-17,15 L-17,14 L-16,14 L-16,12 L-15,12 L-15,11 L-14,11 L-14,9 L-13,9 L-13,8 L-12,8 L-12,7 L-11,7 L-11,6 L-10,6 L-10,5 L-8,5 L-8,4 L-7,4 L-7,3 L-5,3 L-5,2 L-3,2 L-3,1 L0,1 Z M-1,2 L-1,3 L-3,3 L-3,4 L-5,4 L-5,5 L-6,5 L-6,6 L-8,6 L-8,7 L-9,7 L-9,8 L-10,8 L-10,9 L-11,9 L-11,10 L-12,10 L-12,11 L-13,11 L-13,12 L-14,12 L-14,14 L-15,14 L-15,16 L-16,16 L-16,18 L-17,18 L-17,22 L-18,22 L-18,33 L-17,33 L-17,36 L-16,36 L-16,39 L-15,39 L-15,40 L-14,40 L-14,42 L-13,42 L-13,43 L-12,43 L-12,44 L-11,44 L-11,45 L-10,45 L-10,46 L-9,46 L-9,47 L-8,47 L-8,48 L-6,48 L-6,49 L-5,49 L-5,50 L-3,50 L-3,51 L0,51 L0,52 L15,52 L15,51 L18,51 L18,50 L20,50 L20,49 L21,49 L21,48 L23,48 L23,47 L24,47 L24,46 L25,46 L25,45 L26,45 L26,44 L27,44 L27,43 L28,43 L28,42 L29,42 L29,40 L30,40 L30,34 L31,34 L31,29 L30,29 L30,33 L29,33 L29,34 L28,34 L28,36 L27,36 L27,37 L26,37 L26,35 L27,35 L27,32 L28,32 L28,21 L27,21 L27,20 L26,20 L26,17 L25,17 L25,16 L24,16 L24,14 L23,14 L23,13 L22,13 L22,12 L21,12 L21,11 L20,11 L20,10 L18,10 L18,9 L16,9 L16,8 L15,8 L15,7 L18,7 L18,8 L20,8 L20,9 L21,9 L21,10 L22,10 L22,11 L23,11 L23,12 L25,12 L25,14 L26,14 L26,16 L27,16 L27,18 L29,18 L29,21 L31,21 L31,16 L30,16 L30,14 L29,14 L29,13 L28,13 L28,11 L27,11 L27,10 L26,10 L26,9 L25,9 L25,8 L24,8 L24,7 L23,7 L23,6 L21,6 L21,5 L19,5 L19,4 L18,4 L18,3 L15,3 L15,2 Z " fill="#FAD32B" transform="translate(165,8)"/>
<path d="M0,0 L6,0 L6,1 L10,1 L10,9 L9,9 L9,8 L7,8 L7,7 L5,7 L5,6 L1,6 L1,7 L0,7 L0,8 L1,8 L1,9 L2,9 L2,10 L4,10 L4,11 L6,11 L6,12 L7,12 L7,13 L9,13 L9,15 L10,15 L10,16 L11,16 L11,24 L10,24 L10,25 L9,25 L9,26 L8,26 L8,27 L7,27 L7,28 L3,28 L3,29 L-3,29 L-3,28 L-7,28 L-7,20 L-5,20 L-5,21 L-4,21 L-4,22 L-2,22 L-2,23 L1,23 L1,22 L2,22 L2,20 L1,20 L1,19 L-1,19 L-1,18 L-2,18 L-2,17 L-4,17 L-4,16 L-5,16 L-5,15 L-6,15 L-6,14 L-7,14 L-7,12 L-8,12 L-8,5 L-7,5 L-7,3 L-6,3 L-6,2 L-4,2 L-4,1 L0,1 Z " fill="#FBFBFB" transform="translate(119,4)"/>
<path d="M0,0 L19,0 L19,1 L20,1 L20,6 L15,6 L15,5 L4,5 L4,8 L20,8 L20,9 L21,9 L21,19 L20,19 L20,20 L0,20 L0,19 L-1,19 L-1,1 L0,1 Z M4,12 L4,15 L16,15 L16,12 Z " fill="#FEFEFC" transform="translate(83,38)"/>
<path d="M0,0 L20,0 L20,3 L19,3 L19,5 L5,5 L5,7 L19,7 L19,8 L20,8 L20,9 L21,9 L21,18 L20,18 L20,20 L0,20 L0,19 L-1,19 L-1,14 L2,14 L2,13 L4,13 L4,15 L16,15 L16,12 L0,12 Z " fill="#FEFEFC" transform="translate(109,38)"/>
<path d="M0,0 L17,0 L17,1 L18,1 L18,9 L17,9 L17,10 L18,10 L18,11 L19,11 L19,19 L18,19 L18,20 L-1,20 L-1,19 L-2,19 L-2,14 L1,14 L1,13 L3,13 L3,15 L14,15 L14,13 L13,13 L13,12 L6,12 L6,8 L12,8 L12,7 L13,7 L13,5 L3,5 L3,7 L1,7 L1,6 L-2,6 L-2,2 L-1,2 L-1,1 L0,1 Z " fill="#FEFEFC" transform="translate(59,38)"/>
<path d="M0,0 L12,0 L12,1 L11,1 L11,22 L13,22 L13,21 L16,21 L16,20 L18,20 L18,23 L17,23 L17,26 L16,26 L16,27 L0,27 L0,26 L1,26 L1,25 L2,25 L2,2 L1,2 L1,1 L0,1 Z " fill="#FBFBFB" transform="translate(62,5)"/>
<path d="M0,0 L7,0 L7,1 L9,1 L9,2 L11,2 L11,3 L12,3 L12,4 L13,4 L13,5 L14,5 L14,6 L15,6 L15,8 L16,8 L16,10 L17,10 L17,17 L16,17 L16,20 L15,20 L15,22 L3,22 L3,23 L2,23 L2,22 L-1,22 L-1,20 L1,20 L1,19 L3,19 L3,18 L4,18 L4,17 L5,17 L5,16 L6,16 L6,13 L5,13 L5,12 L4,12 L4,11 L3,11 L3,10 L2,10 L2,9 L1,9 L1,7 L0,7 L0,6 L-1,6 L-1,1 L0,1 Z " fill="#241657" transform="translate(170,21)"/>
<path d="M0,0 L16,0 L16,1 L19,1 L19,2 L20,2 L20,3 L22,3 L22,4 L24,4 L24,5 L25,5 L25,6 L26,6 L26,7 L27,7 L27,8 L28,8 L28,9 L29,9 L29,11 L30,11 L30,12 L31,12 L31,14 L32,14 L32,19 L30,19 L30,16 L28,16 L28,14 L27,14 L27,12 L26,12 L26,10 L24,10 L24,9 L23,9 L23,8 L22,8 L22,7 L21,7 L21,6 L19,6 L19,5 L-1,5 L-1,6 L-3,6 L-3,7 L-5,7 L-5,8 L-6,8 L-6,9 L-8,9 L-8,10 L-9,10 L-9,11 L-10,11 L-10,13 L-11,13 L-11,15 L-12,15 L-12,17 L-13,17 L-13,19 L-15,19 L-15,17 L-14,17 L-14,15 L-13,15 L-13,10 L-12,10 L-12,9 L-11,9 L-11,8 L-10,8 L-10,7 L-9,7 L-9,6 L-8,6 L-8,5 L-7,5 L-7,4 L-5,4 L-5,3 L-4,3 L-4,2 L-2,2 L-2,1 L0,1 Z " fill="#C7C288" transform="translate(164,10)"/>
<path d="M0,0 L2,0 L2,5 L3,5 L3,9 L1,9 L1,8 L0,8 L0,7 L-1,7 L-1,11 L0,11 L0,15 L1,15 L1,19 L2,19 L2,26 L1,26 L1,29 L-2,29 L-2,28 L-3,28 L-3,27 L-4,27 L-4,26 L-5,26 L-5,22 L-4,22 L-4,13 L-3,13 L-3,8 L-4,8 L-4,10 L-5,10 L-5,14 L-6,14 L-6,13 L-7,13 L-7,12 L-8,12 L-8,10 L-9,10 L-9,8 L-10,8 L-10,7 L-11,7 L-11,1 L-8,1 L-8,2 L-6,2 L-6,3 L-4,3 L-4,4 L-2,4 L-2,3 L-1,3 L-1,2 L0,2 Z M-2,6 L-2,7 L-1,7 L-1,6 Z " fill="#FFFFFF" transform="translate(29,41)"/>
<path d="M0,0 L1,0 L1,5 L0,5 L0,11 L-1,11 L-1,13 L-2,13 L-2,14 L-3,14 L-3,15 L-4,15 L-4,16 L-5,16 L-5,17 L-6,17 L-6,18 L-7,18 L-7,19 L-11,19 L-11,20 L-12,20 L-12,19 L-13,19 L-13,18 L-15,18 L-15,20 L-26,20 L-26,21 L-20,21 L-20,22 L-29,22 L-29,21 L-31,21 L-31,20 L-34,20 L-34,19 L-35,19 L-35,17 L-30,17 L-30,18 L-16,18 L-16,17 L-14,17 L-14,16 L-12,16 L-12,15 L-10,15 L-10,14 L-9,14 L-9,13 L-8,13 L-8,12 L-7,12 L-7,11 L-6,11 L-6,9 L-5,9 L-5,8 L-3,8 L-3,7 L-2,7 L-2,5 L-1,5 L-1,4 L0,4 Z " fill="#D7D272" transform="translate(195,37)"/>
<path d="M0,0 L15,0 L15,1 L18,1 L18,2 L20,2 L20,3 L22,3 L22,4 L23,4 L23,5 L24,5 L24,6 L26,6 L26,7 L27,7 L27,8 L28,8 L28,9 L29,9 L29,11 L30,11 L30,14 L29,14 L29,13 L28,13 L28,11 L27,11 L27,10 L26,10 L26,9 L25,9 L25,8 L24,8 L24,7 L23,7 L23,6 L21,6 L21,5 L19,5 L19,4 L18,4 L18,3 L15,3 L15,2 L-1,2 L-1,3 L-3,3 L-3,4 L-5,4 L-5,5 L-6,5 L-6,6 L-8,6 L-8,7 L-9,7 L-9,8 L-10,8 L-10,9 L-11,9 L-11,10 L-12,10 L-12,11 L-13,11 L-13,12 L-14,12 L-14,14 L-15,14 L-15,16 L-16,16 L-16,18 L-17,18 L-17,22 L-18,22 L-18,34 L-19,34 L-19,33 L-20,33 L-20,21 L-19,21 L-19,18 L-18,18 L-18,15 L-17,15 L-17,14 L-16,14 L-16,12 L-15,12 L-15,11 L-14,11 L-14,9 L-13,9 L-13,8 L-12,8 L-12,7 L-11,7 L-11,6 L-10,6 L-10,5 L-8,5 L-8,4 L-7,4 L-7,3 L-5,3 L-5,2 L-3,2 L-3,1 L0,1 Z " fill="#FAD124" transform="translate(165,8)"/>
<path d="M0,0 L1,0 L1,1 L2,1 L2,0 L15,0 L15,3 L13,3 L13,4 L12,4 L12,5 L11,5 L11,6 L9,6 L9,7 L6,7 L6,8 L-4,8 L-4,7 L-6,7 L-6,6 L-8,6 L-8,2 L-1,2 L-1,3 L0,3 L0,4 L2,4 L2,3 L1,3 L1,2 L0,2 Z " fill="#E2C80B" transform="translate(171,43)"/>
<path d="M0,0 L3,0 L3,1 L5,1 L5,2 L6,2 L6,3 L7,3 L7,4 L8,4 L8,5 L10,5 L10,7 L11,7 L11,9 L12,9 L12,11 L14,11 L14,14 L16,14 L16,9 L15,9 L15,5 L16,5 L16,7 L17,7 L17,9 L18,9 L18,11 L19,11 L19,12 L20,12 L20,14 L18,14 L18,25 L17,25 L17,29 L16,29 L16,31 L15,31 L15,27 L16,27 L16,22 L15,22 L15,26 L14,26 L14,27 L13,27 L13,29 L12,29 L12,30 L11,30 L11,28 L12,28 L12,25 L13,25 L13,14 L12,14 L12,13 L11,13 L11,10 L10,10 L10,9 L9,9 L9,7 L8,7 L8,6 L7,6 L7,5 L6,5 L6,4 L5,4 L5,3 L3,3 L3,2 L1,2 L1,1 L0,1 Z " fill="#EBE15F" transform="translate(180,15)"/>
<path d="M0,0 L3,0 L3,1 L4,1 L4,4 L3,4 L3,5 L2,5 L2,6 L1,6 L1,7 L-1,7 L-1,8 L-3,8 L-3,10 L-1,10 L-1,12 L0,12 L0,13 L1,13 L1,14 L-1,14 L-1,13 L-2,13 L-2,12 L-9,12 L-9,15 L-10,15 L-10,14 L-11,14 L-11,13 L-12,13 L-12,12 L-13,12 L-13,11 L-12,11 L-12,10 L-5,10 L-5,9 L-6,9 L-6,8 L-5,8 L-5,5 L-3,5 L-3,3 L-5,3 L-5,4 L-9,4 L-9,6 L-10,6 L-10,5 L-11,5 L-11,4 L-12,4 L-12,3 L-13,3 L-13,2 L-1,2 L-1,1 L0,1 Z " fill="#F4D004" transform="translate(172,33)"/>
<path d="M0,0 L1,0 L1,1 L2,1 L2,2 L4,2 L4,3 L5,3 L5,4 L6,4 L6,5 L7,5 L7,6 L9,6 L9,7 L10,7 L10,9 L-2,9 L-2,10 L-1,10 L-1,11 L0,11 L0,12 L1,12 L1,13 L2,13 L2,14 L3,14 L3,15 L4,15 L4,16 L-1,16 L-1,15 L-2,15 L-2,13 L-3,13 L-3,5 L-2,5 L-2,3 L-1,3 L-1,1 L0,1 Z " fill="#20135A" transform="translate(161,26)"/>
<path d="M0,0 L3,0 L3,2 L4,2 L4,3 L6,3 L6,4 L7,4 L7,5 L8,5 L8,6 L9,6 L9,7 L11,7 L11,8 L13,8 L13,9 L16,9 L16,10 L21,10 L21,11 L15,11 L15,12 L23,12 L23,13 L11,13 L11,12 L10,12 L10,11 L8,11 L8,10 L6,10 L6,9 L5,9 L5,8 L4,8 L4,7 L3,7 L3,6 L2,6 L2,5 L1,5 L1,3 L0,3 Z " fill="#1D1259" transform="translate(154,42)"/>
<path d="M0,0 L1,0 L1,2 L2,2 L2,3 L3,3 L3,4 L4,4 L4,6 L3,6 L3,5 L2,5 L2,4 L1,4 L1,5 L0,5 L0,7 L-1,7 L-1,9 L-2,9 L-2,17 L-1,17 L-1,19 L0,19 L0,20 L5,20 L5,19 L4,19 L4,18 L3,18 L3,15 L7,15 L7,14 L9,14 L9,16 L7,16 L7,19 L6,19 L6,20 L7,20 L7,21 L0,21 L0,22 L-1,22 L-1,23 L-2,23 L-2,22 L-3,22 L-3,20 L-2,20 L-2,19 L-3,19 L-3,16 L-4,16 L-4,9 L-3,9 L-3,7 L-2,7 L-2,5 L-1,5 L-1,4 L0,4 Z " fill="#DBCA0E" transform="translate(160,22)"/>
<path d="M0,0 L3,0 L3,1 L7,1 L7,2 L9,2 L9,3 L10,3 L10,4 L11,4 L11,5 L12,5 L12,6 L13,6 L13,7 L14,7 L14,9 L15,9 L15,10 L16,10 L16,12 L17,12 L17,17 L15,17 L15,14 L13,14 L13,12 L12,12 L12,10 L11,10 L11,8 L9,8 L9,7 L8,7 L8,6 L7,6 L7,5 L6,5 L6,4 L4,4 L4,3 L3,3 L3,2 L2,2 L2,1 L0,1 Z " fill="#C5C39E" transform="translate(179,12)"/>
<path d="M0,0 L1,0 L1,2 L2,2 L2,6 L1,6 L1,7 L0,7 L0,9 L1,9 L1,11 L2,11 L2,14 L0,14 L0,17 L-1,17 L-1,20 L-2,20 L-2,21 L-3,21 L-3,22 L-9,22 L-9,21 L-10,21 L-10,20 L-8,20 L-8,21 L-6,21 L-6,20 L-4,20 L-4,19 L-3,19 L-3,16 L-2,16 L-2,13 L-1,13 L-1,12 L0,12 L0,11 L-1,11 L-1,9 L-2,9 L-2,7 L-1,7 L-1,6 L0,6 Z " fill="#FFFFFF" transform="translate(36,18)"/>
<path d="M0,0 L1,0 L1,3 L0,3 L0,5 L-1,5 L-1,7 L1,7 L1,10 L0,10 L0,14 L-2,14 L-2,18 L-1,18 L-1,20 L0,20 L0,24 L1,24 L1,26 L0,26 L0,25 L-1,25 L-1,22 L-2,22 L-2,19 L-3,19 L-3,8 L-2,8 L-2,4 L-1,4 L-1,2 L0,2 Z " fill="#F4F3A9" transform="translate(150,22)"/>
<path d="M0,0 L1,0 L1,3 L10,3 L10,1 L12,1 L12,2 L13,2 L13,4 L1,4 L1,5 L2,5 L2,6 L3,6 L3,7 L4,7 L4,8 L5,8 L5,9 L6,9 L6,10 L7,10 L7,11 L2,11 L2,10 L1,10 L1,8 L0,8 Z " fill="#342953" transform="translate(158,31)"/>
<path d="M0,0 L5,0 L5,1 L17,1 L17,2 L8,2 L8,3 L9,3 L9,4 L15,4 L15,5 L6,5 L6,4 L4,4 L4,3 L1,3 L1,2 L0,2 Z " fill="#A29661" transform="translate(160,54)"/>
<path d="M0,0 L7,0 L7,1 L10,1 L10,0 L17,0 L17,1 L16,1 L16,2 L14,2 L14,3 L3,3 L3,2 L1,2 L1,1 L0,1 Z " fill="#1F155B" transform="translate(164,46)"/>
<path d="M0,0 L2,0 L2,1 L1,1 L1,2 L-1,2 L-1,3 L-2,3 L-2,4 L-3,4 L-3,5 L-4,5 L-4,6 L-5,6 L-5,7 L-6,7 L-6,9 L-7,9 L-7,10 L-8,10 L-8,14 L-9,14 L-9,23 L-10,23 L-10,11 L-9,11 L-9,9 L-8,9 L-8,7 L-7,7 L-7,5 L-6,5 L-6,4 L-5,4 L-5,3 L-3,3 L-3,2 L-2,2 L-2,1 L0,1 Z " fill="#EAD835" transform="translate(161,16)"/>
<path d="M0,0 L1,0 L1,3 L2,3 L2,6 L3,6 L3,7 L4,7 L4,9 L5,9 L5,10 L6,10 L6,11 L7,11 L7,12 L8,12 L8,13 L9,13 L9,14 L10,14 L10,15 L9,15 L9,16 L8,16 L8,15 L7,15 L7,14 L6,14 L6,13 L5,13 L5,12 L4,12 L4,11 L3,11 L3,9 L2,9 L2,8 L1,8 L1,6 L0,6 L0,3 L-1,3 L-1,1 L0,1 Z " fill="#FBD337" transform="translate(147,41)"/>
<path d="M0,0 L3,0 L3,1 L4,1 L4,2 L6,2 L6,3 L9,3 L9,4 L14,4 L14,5 L21,5 L21,6 L9,6 L9,5 L6,5 L6,4 L4,4 L4,3 L2,3 L2,2 L1,2 L1,1 L0,1 Z " fill="#FACD19" transform="translate(156,56)"/>
<path d="M0,0 L2,0 L2,2 L0,2 L0,5 L-1,5 L-1,6 L0,6 L0,7 L-7,7 L-7,8 L-8,8 L-8,9 L-9,9 L-9,8 L-10,8 L-10,6 L-8,6 L-8,5 L-7,5 L-7,6 L-2,6 L-2,5 L-3,5 L-3,4 L-4,4 L-4,1 L0,1 Z " fill="#AF9720" transform="translate(167,36)"/>
<path d="M0,0 L1,0 L1,7 L2,7 L2,10 L1,10 L1,12 L2,12 L2,14 L3,14 L3,16 L1,16 L1,14 L0,14 L0,10 L-1,10 L-1,8 L-2,8 L-2,4 L0,4 Z " fill="#AEAB80" transform="translate(150,32)"/>
<path d="M0,0 L12,0 L12,1 L5,1 L5,2 L-1,2 L-1,3 L-3,3 L-3,4 L-5,4 L-5,5 L-6,5 L-6,6 L-8,6 L-8,4 L-7,4 L-7,3 L-5,3 L-5,2 L-3,2 L-3,1 L0,1 Z " fill="#F9CB14" transform="translate(165,8)"/>
<path d="M0,0 L3,0 L3,2 L4,2 L4,4 L3,4 L3,5 L4,5 L4,6 L5,6 L5,7 L6,7 L6,8 L7,8 L7,9 L9,9 L9,10 L11,10 L11,11 L13,11 L13,12 L10,12 L10,11 L8,11 L8,10 L6,10 L6,9 L5,9 L5,8 L4,8 L4,7 L3,7 L3,6 L2,6 L2,5 L1,5 L1,3 L0,3 Z " fill="#130B5D" transform="translate(154,42)"/>
<path d="M0,0 L1,0 L1,3 L2,3 L2,5 L3,5 L3,7 L4,7 L4,8 L5,8 L5,9 L6,9 L6,10 L7,10 L7,11 L8,11 L8,12 L10,12 L10,13 L12,13 L12,14 L9,14 L9,13 L7,13 L7,12 L6,12 L6,11 L4,11 L4,9 L3,9 L3,8 L1,8 L1,6 L0,6 L0,4 L-1,4 L-1,2 L0,2 Z " fill="#DED13E" transform="translate(152,40)"/>
<path d="M0,0 L1,0 L1,1 L2,1 L2,2 L3,2 L3,13 L2,13 L2,14 L1,14 L1,3 L-2,3 L-2,1 L0,1 Z " fill="#281B4F" transform="translate(190,27)"/>
<path d="M0,0 L6,0 L6,1 L9,1 L9,0 L11,0 L11,2 L12,2 L12,3 L13,3 L13,4 L11,4 L11,3 L10,3 L10,2 L3,2 L3,5 L2,5 L2,4 L1,4 L1,3 L0,3 L0,2 L-1,2 L-1,1 L0,1 Z " fill="#FAE301" transform="translate(160,43)"/>
<path d="M0,0 L3,0 L3,3 L1,3 L1,4 L2,4 L2,5 L0,5 L0,4 L-8,4 L-8,3 L-2,3 L-2,2 L-7,2 L-7,1 L0,1 Z " fill="#332350" transform="translate(177,50)"/>
<path d="M0,0 L2,0 L2,9 L1,9 L1,10 L0,10 L0,14 L-1,14 L-1,12 L-2,12 L-2,10 L-1,10 L-1,7 L0,7 Z " fill="#CEBE13" transform="translate(187,31)"/>
<path d="M0,0 L4,0 L4,1 L5,1 L5,3 L7,3 L7,4 L8,4 L8,6 L4,6 L4,5 L3,5 L3,4 L2,4 L2,3 L1,3 L1,2 L0,2 Z " fill="#BFBD9E" transform="translate(151,48)"/>
<path d="M0,0 L3,0 L3,1 L4,1 L4,2 L6,2 L6,3 L7,3 L7,4 L8,4 L8,5 L9,5 L9,7 L10,7 L10,10 L9,10 L9,9 L8,9 L8,7 L7,7 L7,6 L6,6 L6,5 L5,5 L5,4 L4,4 L4,3 L3,3 L3,2 L1,2 L1,1 L0,1 Z " fill="#FBCF24" transform="translate(185,12)"/>
<path d="M0,0 L3,0 L3,4 L4,4 L4,2 L5,2 L5,5 L6,5 L6,6 L2,6 L2,7 L1,7 L1,4 L0,4 Z " fill="#281B53" transform="translate(152,36)"/>
<path d="M0,0 L2,0 L2,1 L1,1 L1,2 L0,2 L0,3 L-1,3 L-1,5 L-2,5 L-2,7 L-3,7 L-3,9 L-4,9 L-4,11 L-6,11 L-6,9 L-5,9 L-5,7 L-4,7 L-4,4 L-3,4 L-3,3 L-2,3 L-2,2 L-1,2 L-1,1 L0,1 Z " fill="#8F8C87" transform="translate(155,18)"/>
<path d="M0,0 L2,0 L2,1 L1,1 L1,2 L0,2 L0,3 L-1,3 L-1,4 L-2,4 L-2,6 L-3,6 L-3,9 L-4,9 L-4,6 L-5,6 L-5,7 L-6,7 L-6,8 L-7,8 L-7,6 L-6,6 L-6,5 L-5,5 L-5,4 L-4,4 L-4,3 L-3,3 L-3,2 L-1,2 L-1,1 L0,1 Z " fill="#18105C" transform="translate(163,16)"/>
<path d="M0,0 L1,0 L1,2 L0,2 L0,3 L-1,3 L-1,4 L-2,4 L-2,5 L-3,5 L-3,6 L-4,6 L-4,7 L-5,7 L-5,8 L-6,8 L-6,9 L-8,9 L-8,10 L-9,10 L-9,9 L-10,9 L-10,8 L-9,8 L-9,7 L-6,7 L-6,6 L-5,6 L-5,5 L-4,5 L-4,4 L-3,4 L-3,3 L-2,3 L-2,2 L-1,2 L-1,1 L0,1 Z " fill="#78727B" transform="translate(192,47)"/>
<path d="M0,0 L1,0 L1,1 L3,1 L3,2 L12,2 L12,3 L2,3 L2,4 L1,4 L1,3 L-2,3 L-2,1 L0,1 Z " fill="#2B1F55" transform="translate(171,40)"/>
<path d="M0,0 L11,0 L11,1 L8,1 L8,2 L4,2 L4,4 L3,4 L3,3 L2,3 L2,2 L1,2 L1,1 L0,1 Z " fill="#FCE100" transform="translate(159,35)"/>
<path d="M0,0 L2,0 L2,1 L5,1 L5,2 L6,2 L6,3 L4,3 L4,2 L1,2 L1,3 L3,3 L3,4 L4,4 L4,5 L-1,5 L-1,4 L-2,4 L-2,3 L0,3 Z " fill="#F0EC8E" transform="translate(178,10)"/>
<path d="M0,0 L2,0 L2,10 L1,10 L1,6 L-1,6 L-1,3 L0,3 Z " fill="#FEFBA0" transform="translate(196,30)"/>
<path d="M0,0 L1,0 L1,2 L2,2 L2,4 L3,4 L3,6 L4,6 L4,7 L5,7 L5,9 L3,9 L3,10 L2,10 L2,6 L1,6 L1,4 L0,4 Z " fill="#FBDA59" transform="translate(195,20)"/>
<path d="M0,0 L3,0 L3,1 L6,1 L6,3 L8,3 L8,4 L9,4 L9,6 L7,6 L7,5 L6,5 L6,4 L4,4 L4,3 L3,3 L3,2 L2,2 L2,1 L0,1 Z " fill="#8B8688" transform="translate(179,12)"/>
<path d="M0,0 L1,0 L1,3 L0,3 L0,4 L-1,4 L-1,5 L-3,5 L-3,6 L-4,6 L-4,7 L-7,7 L-7,6 L-6,6 L-6,5 L-4,5 L-4,4 L-3,4 L-3,3 L-2,3 L-2,2 L-1,2 L-1,1 L0,1 Z " fill="#FACB19" transform="translate(192,51)"/>
<path d="M0,0 L1,0 L1,1 L2,1 L2,2 L1,2 L1,4 L0,4 L0,6 L-1,6 L-1,10 L-2,10 L-2,8 L-3,8 L-3,6 L-2,6 L-2,3 L-1,3 L-1,2 L0,2 Z " fill="#FBD733" transform="translate(149,20)"/>
<path d="M0,0 L1,0 L1,5 L-1,5 L-1,3 L0,3 Z " fill="#FFFFFF" transform="translate(19,36)"/>
</svg>
